<svg xmlns="http://www.w3.org/2000/svg" width="64" height="13" viewBox="0 0 64 13"><g><g opacity=".88"><g><text dominant-baseline="text-before-edge" style="font-kerning:normal" fill="#3b3a3a" font-family="'Roboto','Roboto-Bold'" font-size="10" font-style="none" font-weight="700"><tspan>Certifcations</tspan></text></g></g><g opacity=".7"><g opacity=".7"><g opacity=".7"><path fill="#3b3a3a" d="M59.116 11.874a.224.224 0 0 1 .122-.05c.031-.028.092-.053.123-.08.093-.053.183-.077.246-.132.032-.027.093-.052.124-.08.032-.027.093-.053.124-.08.34-.213.687-.514 1.004-.818.16-.167.32-.333.451-.531.065-.084.133-.198.198-.282.065-.085.132-.198.199-.312.132-.198.237-.428.34-.628.104-.23.178-.432.253-.663l.042-.175c.004-.059.038-.116.042-.175l.035-.086.007-.088c.004-.06.037-.116.041-.175.046-.234.063-.47.08-.705l.011-.177.013-.177.012-.177c.004-.059.008-.117-.017-.178l.006-.089.007-.088c.004-.06-.022-.12-.017-.18.004-.058-.022-.12-.018-.178.005-.059-.02-.12-.017-.179a7.673 7.673 0 0 0-.355-1.268 4.813 4.813 0 0 0-.548-1.045c-.4-.62-.844-1.037-1.15-1.324l-.055-.063c-.029-.003-.027-.032-.056-.034-.028-.032-.085-.065-.112-.097a.617.617 0 0 0-.168-.13c-.084-.065-.141-.099-.141-.099s.057.034.14.1a.617.617 0 0 1 .17.13c.026.03.054.062.113.066.03.003.027.032.056.034l.055.063c.337.26.78.706 1.21 1.328.214.311.397.65.577 1.047.025.061.052.093.048.152-.002.03.026.06.026.06-.003.03.025.062.023.091.023.09.074.213.097.303.021.12.044.21.095.333-.002.029.025.06.023.09-.002.03.026.061.024.09.025.061.02.12.046.181-.004.06.021.12.017.18l.023.09.024.09c-.004.06.02.12.017.179-.004.059.021.12.017.179l-.006.088-.007.089c-.004.059-.008.118.018.179-.009.117.012.237-.025.353-.017.236-.035.501-.081.735-.046.233-.094.497-.17.728l-.07.173-.072.172c-.033.057-.038.116-.071.173-.034.057-.038.116-.071.173-.105.23-.21.459-.342.657-.132.198-.267.425-.426.592a.517.517 0 0 1-.128.14c-.032.027-.034.056-.063.054l-.063.055a.519.519 0 0 1-.128.139c-.034.057-.095.082-.128.139-.16.166-.349.33-.506.468-.187.135-.345.272-.53.377l-.554.317c-.093.053-.185.106-.276.129-.067.114.01-.148.072-.173z"/></g><g opacity=".7"><g opacity=".7"><g opacity=".7"><g opacity=".7"><path fill="#3b3a3a" d="M59.257 10.28c-.089-.006-.15.02-.183.077-.032.027-.036.086-.04.145l-.017.237c.01.297.052.538.1.69.05.151.102.244.16.278 0 0 .005-.089.014-.207l.014-.207a468.808 468.808 0 0 0 .017-.236c.01-.148-.007-.327.001-.445s-.017-.18-.017-.18-.006.089.017.18c.021.12.011.268.028.447-.01.148.007.327-.001.445-.004.06-.009.118-.01.148l-.005.059a.78.78 0 0 0 .196-.254c.036-.086.072-.173.078-.261l.027-.384a.938.938 0 0 0-.12-.424.682.682 0 0 0-.259-.107z"/></g><g opacity=".7"><path fill="#3b3a3a" d="M61.2 12.643l-.101.17c-.032.028-.063.056-.093.054-.031.027-.061.025-.093.053-.09.023-.151.048-.27.04-.118-.008-.204-.044-.35-.084-.203-.073-.346-.143-.458-.24-.112-.097-.197-.162-.28-.257-.137-.158-.158-.278-.183-.339 0 0 .086.036.23.105.057.034.143.07.23.105.087.036.173.072.29.11.202.073.407.117.552.157.087.036.146.04.176.042l.059.004-.06-.004c-.059-.004-.116-.038-.175-.042-.086-.036-.175-.042-.261-.078-.06-.004-.087-.035-.146-.04-.057-.033-.087-.035-.144-.069-.086-.036-.202-.074-.289-.11a2.04 2.04 0 0 1-.23-.104c-.057-.034-.114-.068-.173-.072-.028-.031-.057-.034-.057-.034.03.003.06-.025.152-.048.06-.026.15-.02.238-.013l.355.024c.059.005.147.01.234.047a.865.865 0 0 1 .262.077c.116.038.232.076.318.112.087.035.142.099.199.132.114.068.135.188.068.302z"/></g></g><g opacity=".7"><g opacity=".7"><path fill="#3b3a3a" d="M59.911 9.762c-.088-.006-.122.051-.156.108l-.01.148c-.004.059.02.15.043.24.019.15.07.272.09.393.022.12.077.183.1.274.079.154.163.219.19.25 0 0 .007-.088-.014-.208-.022-.12-.04-.27-.06-.42-.02-.15-.068-.302-.09-.422a.949.949 0 0 0 0 0c.026.061.022.12.048.181.025.062.019.15.044.211.02.15.068.302.06.42.021.12.015.209.015.209a.555.555 0 0 0 .137-.258c.002-.03.035-.086.038-.116l.01-.147c.004-.06.008-.119-.017-.18.004-.059-.022-.12-.045-.21a.595.595 0 0 0-.102-.245c-.025-.061-.08-.125-.107-.156a.225.225 0 0 0-.115-.068l-.059-.004z"/></g><g opacity=".7"><path fill="#3b3a3a" d="M62.212 11.675c-.002.03-.004.059-.036.086-.002.03-.033.057-.035.087a.357.357 0 0 1-.158.137c-.061.025-.152.049-.243.072-.059-.004-.09.023-.15.02l-.177-.013c-.088-.006-.175-.042-.264-.048-.086-.036-.145-.04-.232-.076a3.231 3.231 0 0 1-.313-.2c-.139-.128-.22-.253-.217-.282 0 0 .086.036.232.075.03.003.089.007.116.038.03.002.089.006.116.038.089.006.175.042.294.05.088.006.206.015.293.05l.266.02.266.018-.266-.019c-.089-.006-.177-.012-.264-.048-.089-.006-.205-.044-.293-.05a9.934 9.934 0 0 1-.526-.126 2.18 2.18 0 0 1-.232-.076c.031-.027.06-.025.122-.05.061-.026.122-.051.243-.073.03.002.059.005.09-.023.03.002.06.004.091-.023.06.004.12-.022.209-.015.06.004.148.01.238-.013l.266.018c.266.019.441.06.524.156.027.031.049.151.04.27z"/></g></g><g opacity=".7"><g opacity=".7"><path fill="#3b3a3a" d="M60.488 9.125c-.062.025-.123.05-.129.14a.322.322 0 0 0 .02.149c.025.061.048.152.073.213.051.122.102.245.155.337.053.093.106.186.16.249.11.126.195.192.225.194 0 0 .002-.03-.026-.061a.224.224 0 0 0-.05-.123c-.022-.12-.073-.242-.121-.394-.05-.152-.1-.274-.15-.396-.054-.093-.08-.154-.08-.154s.026.06.08.154c.052.092.1.244.152.366.025.062.048.152.074.213l.076.184c.025.061.023.09.05.122-.001.03.026.061.026.061.032-.027.07-.143.11-.289a.823.823 0 0 0-.011-.268c-.022-.12-.043-.24-.123-.365a.808.808 0 0 0-.273-.345c-.089-.006-.177-.013-.238.013z"/></g><g opacity=".7"><path fill="#3b3a3a" d="M63 10.547a.469.469 0 0 1-.172.344c-.124.08-.308.157-.546.17-.209.015-.354-.025-.5-.065a.834.834 0 0 1-.317-.14c-.17-.102-.253-.196-.279-.258l.06.005.177.012c.147.01.325.023.533.008.089.006.21-.015.298-.01.089.007.18-.016.238-.012.06.004.15-.02.18-.017l.059.004-.06-.004c-.029-.002-.12.02-.179.017-.059-.004-.15.019-.238.013-.089-.006-.18.017-.298.009a8494.311 8494.311 0 0 1-.502-.035l-.177-.013-.06-.004.096-.082c.031-.028.06-.026.092-.053.032-.028.062-.026.123-.051.183-.076.426-.148.814-.18a1.33 1.33 0 0 1 .327-.007c.089.006.146.04.203.073.114.067.137.158.129.276z"/></g></g><g opacity=".7"><g opacity=".7"><path fill="#3b3a3a" d="M60.953 8.358c-.032.028-.061.026-.063.055-.032.028-.034.057-.036.087-.002.03.023.09.049.152.025.061.05.122.104.215.08.124.133.217.215.312a.555.555 0 0 0 .195.191c.112.097.198.133.255.167l-.076-.184a3.792 3.792 0 0 1-.182-.369c-.08-.124-.16-.248-.214-.341-.027-.032-.053-.093-.082-.095l-.028-.031.028.031.082.095c.053.093.134.217.214.341.08.125.16.25.214.342.052.093.078.154.078.154.002-.03.04-.146.05-.294a.682.682 0 0 0-.07-.272.837.837 0 0 0-.184-.339c-.108-.156-.22-.253-.306-.289-.123.051-.182.047-.243.072z"/></g><g opacity=".7"><path fill="#3b3a3a" d="M63.59 9.285c.021.12-.017.236-.114.348-.096.112-.25.19-.493.263-.09.023-.18.017-.27.04-.089-.006-.15.02-.207-.014-.147-.01-.234-.046-.323-.053-.173-.071-.257-.136-.314-.17 0 0 .088.006.238-.013.03.002.06.004.12-.021.03.002.091-.024.12-.022.091-.023.18-.017.27-.04.182-.047.363-.093.513-.113.152-.048.243-.072.243-.072s-.09.024-.243.072a4.56 4.56 0 0 0-.512.113c-.18.017-.361.064-.509.053-.15.02-.238.013-.238.013.002-.03.033-.057.095-.082.031-.027.094-.082.187-.135.156-.108.4-.21.764-.303.242-.072.392-.091.506-.024.09-.023.144.07.167.16z"/></g></g><g opacity=".7"><g opacity=".7"><path fill="#3b3a3a" d="M61.247 7.55c-.063.055-.095.083-.071.173-.003.03.023.091.05.123.026.06.08.124.136.187.082.095.165.19.25.255.083.065.139.129.225.164.144.07.23.106.26.108l-.028-.032-.082-.095c-.053-.093-.165-.19-.245-.314l-.248-.284c-.084-.065-.11-.127-.11-.127s.057.034.14.129c.084.065.167.16.277.286.112.097.192.222.245.314.027.032.053.093.082.095l.028.032c.002-.03.01-.148-.011-.268a1.217 1.217 0 0 0-.32-.527c-.14-.129-.253-.196-.342-.202-.114-.067-.173-.072-.236-.017z"/></g><g opacity=".7"><path fill="#3b3a3a" d="M63.949 7.977c.025.06.02.12.017.179a.42.42 0 0 1-.072.173c-.031.028-.033.057-.065.085l-.095.082a1.033 1.033 0 0 1-.278.159c-.184.076-.333.095-.454.116-.12.022-.238.013-.327.007-.175-.042-.291-.08-.319-.111 0 0 .03.002.062-.025.03.002.09-.024.152-.05.06-.025.151-.048.212-.073.032-.028.091-.024.123-.051.031-.028.09-.024.122-.051.09-.023.184-.076.245-.102.09-.023.154-.078.215-.103.122-.051.215-.104.215-.104s-.093.053-.215.104c-.061.025-.122.05-.215.103-.091.024-.154.079-.245.102a2.282 2.282 0 0 1-.455.146c-.062.026-.12.021-.152.049-.03-.002-.061.025-.061.025.002-.03.033-.057.067-.114a.786.786 0 0 1 .16-.167c.063-.055.158-.137.25-.19.062-.025.125-.08.186-.106.061-.025.154-.078.215-.103.215-.104.367-.153.484-.115.122-.05.206.015.228.135z"/></g></g><g opacity=".7"><g opacity=".7"><path fill="#3b3a3a" d="M61.397 6.673c-.031.028-.033.057-.035.087l-.007.088c.026.061.108.156.25.255.114.068.198.133.283.198.086.036.173.072.23.105.146.04.234.046.264.048 0 0-.055-.063-.14-.128-.027-.032-.084-.065-.139-.129-.057-.033-.112-.096-.17-.13-.056-.034-.111-.097-.168-.13-.057-.034-.114-.068-.142-.1-.084-.065-.141-.099-.141-.099s.057.034.141.1c.057.033.085.065.142.098.057.034.114.068.169.13.112.098.226.165.31.23.085.066.14.129.14.129l.006-.089c.002-.03.004-.059-.025-.06.002-.03-.026-.062-.024-.092-.025-.06-.08-.124-.133-.217-.055-.063-.137-.158-.251-.225a.716.716 0 0 0-.376-.145c-.06-.004-.12.021-.184.076z"/></g><g opacity=".7"><path fill="#3b3a3a" d="M64.043 6.62c.026.062.053.093.05.153l-.007.088c-.002.03-.004.06-.036.087-.033.057-.067.114-.132.198-.064.055-.129.14-.222.193a.992.992 0 0 1-.398.18c-.123.05-.211.044-.302.067-.18.018-.293-.05-.323-.052 0 0 .061-.025.186-.106.122-.05.278-.158.402-.239.032-.027.064-.055.125-.08l.095-.082c.063-.055.124-.08.187-.136.061-.025.095-.082.127-.11.031-.027.06-.025.06-.025s-.029-.002-.06.025a.408.408 0 0 1-.125.08.784.784 0 0 0-.187.136c-.064.055-.154.078-.217.133-.064.055-.154.079-.218.134-.031.027-.06.025-.092.052-.032.028-.062.026-.093.053-.122.051-.186.106-.186.106.004-.059.04-.146.169-.285.031-.028.065-.085.097-.112.031-.027.065-.084.126-.11.034-.057.095-.082.158-.137.063-.055.127-.11.188-.136.187-.135.341-.213.43-.207.061-.025.148.01.198.133z"/></g></g><g opacity=".7"><g opacity=".7"><path fill="#3b3a3a" d="M61.4 5.786c-.032.027-.034.057-.036.086-.002.03-.004.06.024.091a.41.41 0 0 0 .112.097l.17.1c.23.106.404.178.552.188.148.01.236.016.268-.011 0 0-.057-.034-.142-.099-.084-.065-.198-.133-.312-.2a184.61 184.61 0 0 1-.171-.101c-.057-.034-.114-.067-.144-.07a.224.224 0 0 0-.116-.037c-.03-.002-.028-.032-.028-.032s.057.034.144.07c.087.035.2.103.346.143.114.067.228.134.315.17.057.034.087.036.114.067.03.002.028.032.028.032.002-.03.004-.06-.024-.09a.648.648 0 0 1-.078-.155l-.083-.095a.41.41 0 0 0-.112-.096.927.927 0 0 0-.285-.169c-.173-.071-.291-.08-.38-.086-.065.085-.128.14-.162.197z"/></g><g opacity=".7"><path fill="#3b3a3a" d="M63.902 5.248c.053.093.106.186.068.302a.55.55 0 0 1-.074.203c-.031.027-.035.086-.067.114-.032.027-.065.084-.097.112-.126.11-.25.19-.344.243-.122.05-.213.074-.274.1-.152.048-.268.01-.327.006l.158-.137.348-.303c.126-.11.255-.249.32-.333.095-.083.16-.167.16-.167s-.063.055-.16.167c-.095.082-.223.221-.35.331l-.347.303c-.061.025-.095.082-.125.08l-.031.027c.004-.059.01-.147.111-.318.07-.144.202-.342.428-.594.065-.084.158-.137.22-.192.064-.055.125-.08.184-.076.06.004.144.07.199.132z"/></g></g><g opacity=".7"><g opacity=".7"><path fill="#3b3a3a" d="M61.223 4.915c-.033.057-.037.116.018.18.055.063.141.099.287.138.232.076.439.09.557.099.148.01.211-.045.27-.04 0 0-.057-.034-.144-.07a3.067 3.067 0 0 0-.348-.114c-.057-.033-.116-.037-.173-.071-.06-.004-.116-.038-.146-.04a.518.518 0 0 0 0 0c.06.004.116.038.176.042.059.004.116.038.175.042.116.038.261.078.348.113.06.005.087.036.116.038l.03.002c-.028-.031-.051-.122-.134-.217-.027-.031-.057-.034-.084-.065-.027-.032-.057-.034-.114-.067-.087-.036-.173-.072-.319-.112-.175-.042-.264-.048-.357.005-.06.025-.122.05-.158.137z"/></g><g opacity=".7"><path fill="#3b3a3a" d="M63.548 3.95c.027.031.084.065.08.124.025.061.023.09.049.152-.005.059-.009.118-.044.205a1.054 1.054 0 0 1-.137.257 1.597 1.597 0 0 1-.538.467c-.151.05-.272.07-.301.068 0 0 .002-.03.031-.027a.41.41 0 0 0 .097-.112c.066-.085.194-.224.291-.336.032-.028.063-.055.067-.114.032-.028.034-.057.066-.085.033-.057.097-.112.13-.169l.101-.17s-.035.086-.13.168a.619.619 0 0 1-.13.17.903.903 0 0 1-.163.196c-.1.141-.226.251-.29.336-.035.057-.066.084-.098.112l-.031.027c.004-.059-.02-.15.022-.325.002-.03.036-.086.038-.116.004-.059.036-.086.07-.143.037-.117.105-.23.204-.372a.935.935 0 0 1 .32-.334c.122-.05.21-.045.295.02z"/></g></g><g opacity=".7"><g opacity=".7"><path fill="#3b3a3a" d="M60.902 4.064c-.004.06-.009.118.048.152.028.032.057.034.114.067.06.005.117.038.205.044l.325.023c.089.006.18-.017.239-.013a.567.567 0 0 0 .244-.102l-.03-.002c-.029-.002-.058-.004-.115-.037-.089-.007-.235-.046-.353-.055-.118-.008-.234-.046-.325-.022l-.148-.01a8869.63 8869.63 0 0 0 .503.034c.118.009.266.019.352.055a.36.36 0 0 1 .146.04s.002-.03-.028-.032l-.027-.032a.408.408 0 0 0-.112-.097c-.057-.033-.114-.067-.2-.103-.087-.035-.205-.044-.324-.052a.631.631 0 0 0-.36.064c-.087-.036-.12.021-.154.078z"/></g><g opacity=".7"><path fill="#3b3a3a" d="M62.923 2.751c.087.036.14.129.161.249-.004.059.021.12-.014.207a.478.478 0 0 1-.108.26c-.069.143-.136.257-.231.34-.065.084-.158.137-.221.192a.582.582 0 0 1-.275.1s.002-.03.034-.058c.032-.027.036-.086.067-.114.068-.114.135-.228.205-.372.069-.143.138-.287.176-.403.038-.116.074-.202.074-.202l-.072.173c-.037.116-.107.26-.206.4-.07.144-.168.286-.204.372-.034.057-.065.085-.067.114a.092.092 0 0 0-.034.058c.002-.03-.026-.062-.021-.12.004-.06-.022-.12.014-.208.01-.147.056-.381.195-.669.036-.086.072-.173.135-.228a.646.646 0 0 1 .129-.14c.088.007.177.013.263.049z"/></g></g><g opacity=".7"><g opacity=".7"><path fill="#3b3a3a" d="M60.423 3.295c-.004.059.022.12.079.154.03.002.057.033.116.037l.177.013c.12-.022.209-.015.3-.039.09-.023.152-.048.213-.074.122-.05.185-.106.217-.133l-.03-.002-.118-.008c-.088-.007-.209.015-.327.006a1.064 1.064 0 0 0-.329.037c-.09.023-.15.019-.15.019s.06.004.15-.02c.09-.023.209-.014.33-.036.12-.02.238-.013.326-.006l.148.01s.002-.03-.028-.032l-.027-.031a.226.226 0 0 0-.144-.07c-.057-.033-.116-.038-.204-.044-.09-.006-.178-.012-.298.01a.552.552 0 0 0-.306.126c-.055-.063-.088-.006-.095.083z"/></g><g opacity=".7"><path fill="#3b3a3a" d="M62.139 1.693c.086.036.17.1.194.192.026.06.022.12.047.18-.006.09-.013.178-.048.265-.04.145-.107.26-.143.346-.066.084-.101.171-.165.226-.096.112-.187.135-.248.16 0 0 .002-.029.033-.056.003-.03.036-.087.038-.116.038-.117.078-.262.118-.408.04-.145.08-.291.088-.41.038-.115.044-.204.044-.204s-.006.089-.044.205a9.74 9.74 0 0 0-.118.407c-.04.146-.109.29-.147.405a.224.224 0 0 0-.038.116c-.002.03-.033.057-.033.057-.028-.031-.051-.122-.07-.272-.02-.15-.005-.356.045-.65.036-.086.042-.175.076-.232a.651.651 0 0 1 .099-.141c.095-.083.185-.106.272-.07z"/></g></g><g opacity=".7"><g opacity=".7"><path fill="#3b3a3a" d="M59.824 2.6c-.004.059.053.092.11.126l.059.004.059.004c.06.004.12-.021.181-.046.211-.045.365-.123.49-.204.094-.082.158-.137.16-.167 0 0-.06-.004-.15.02-.09.023-.211.044-.331.066-.12.02-.211.044-.302.067-.09.024-.152.05-.152.05s.061-.026.152-.05c.032-.027.09-.023.152-.048.061-.026.12-.022.152-.049.12-.021.24-.043.301-.068.03.002.091-.023.12-.021l.03.002c-.027-.032-.084-.065-.2-.103l-.207-.015a.662.662 0 0 0-.302.068c-.152.049-.244.102-.278.159-.036.086-.04.146-.044.205z"/></g><g opacity=".7"><path fill="#3b3a3a" d="M61.138.792c.088.006.173.071.226.164.025.061.053.093.076.183.026.061.02.15.011.268-.02.296-.122.467-.19.61-.098.112-.161.167-.193.195 0 0 .004-.06.042-.176.008-.118.048-.263.059-.411l.029-.414.012-.177-.012.177-.013.178-.008.118-.008.118c-.01.148-.05.293-.059.411-.004.06-.006.09-.038.117l-.004.059a1.114 1.114 0 0 1-.13-.247c.001-.03-.024-.09-.022-.12.002-.03-.024-.09-.02-.15-.023-.09-.012-.238-.002-.386l.016-.236a.226.226 0 0 1 .07-.144c.008-.118.07-.144.158-.137z"/></g></g><g opacity=".7"><g opacity=".7"><path fill="#3b3a3a" d="M59.093 2.014c.05.122.137.158.413.03.186-.107.34-.185.405-.27.095-.082.129-.139.133-.198l-.032.028c-.03-.003-.06.025-.09.023-.091.023-.184.076-.277.129-.06.025-.092.053-.154.078-.06.026-.092.053-.122.051l-.122.05s.061-.025.124-.08c.032-.027.093-.052.125-.08.06-.025.092-.053.154-.078.215-.104.428-.178.428-.178-.03-.002-.116-.038-.205-.044-.06-.004-.118-.008-.209.015-.09.023-.181.047-.274.1-.125.08-.217.133-.251.19-.067.114-.072.173-.046.234z"/></g><g opacity=".7"><path fill="#3b3a3a" d="M60.029.09a.337.337 0 0 1 .23.106c.028.032.053.093.079.154a.557.557 0 0 1 .042.24c.009.298-.033.473-.07.589a1.12 1.12 0 0 1-.165.226l.004-.06.008-.117c.007-.089-.013-.239-.032-.388a.224.224 0 0 0-.021-.12c.002-.03.004-.06-.024-.091.005-.06-.02-.12-.017-.18-.02-.12-.017-.179-.017-.179s.026.061.017.18c-.004.058.022.12.017.179-.004.059.02.15.016.209.008.297.02.565.02.565-.028-.032-.113-.097-.163-.22-.028-.03-.026-.06-.051-.122-.028-.031-.024-.09-.051-.122a3.073 3.073 0 0 1-.064-.36c-.023-.091-.017-.18-.013-.239.004-.059.008-.118.04-.146a.477.477 0 0 1 .215-.103z"/></g></g></g><g opacity=".7"><path fill="#3b3a3a" d="M58.79.835c-.038.116.01.268.27.375l.26.108.059.004.059.004.089.006c.118.008.179-.017.208-.015l-.114-.067c-.027-.032-.086-.036-.114-.068 0 0-.03-.002-.027-.031 0 0-.03-.002-.028-.032-.03-.002-.057-.034-.086-.036a.501.501 0 0 0-.144-.069c-.03-.002-.057-.034-.057-.034-.03-.002-.057-.033-.057-.033-.086-.036-.114-.068-.114-.068s.057.034.144.07c.03.002.03.002.057.033.03.002.057.034.057.034.057.034.086.036.143.07.03.001.057.033.087.035 0 0 .03.002.027.032 0 0 .03.002.028.031.057.034.084.066.114.068.086.035.114.067.114.067.002-.03-.021-.12-.104-.215-.027-.032-.025-.061-.055-.063l-.027-.032c-.03-.002-.028-.031-.057-.033-.055-.064-.142-.1-.256-.167-.143-.07-.232-.075-.323-.052-.086-.036-.12.021-.154.078z"/></g></g></g></g></g></svg>