<svg xmlns="http://www.w3.org/2000/svg" width="53" height="14" viewBox="0 0 53 14"><g><g opacity=".7"><g opacity=".7"><g opacity=".7"><path fill="#3b3a3a" d="M5.663 12.433c-.031-.028-.09-.025-.121-.053a.224.224 0 0 0-.121-.053c-.091-.054-.181-.079-.273-.133-.03-.028-.091-.054-.122-.082-.031-.028-.091-.055-.122-.083a8.419 8.419 0 0 1-1.017-.803l-.47-.506c-.063-.086-.128-.2-.22-.284-.064-.085-.13-.2-.193-.285a4.348 4.348 0 0 1-.328-.633 4.59 4.59 0 0 1-.271-.665l-.068-.173c-.003-.06-.036-.117-.039-.175l-.034-.087-.034-.087c-.003-.059-.036-.116-.039-.175-.042-.234-.084-.468-.096-.704l-.01-.176-.008-.177-.01-.177-.009-.177-.005-.088-.004-.088a.373.373 0 0 1 .02-.178c-.003-.06.023-.12.02-.179-.003-.059.024-.119.02-.178.066-.446.191-.866.348-1.258.156-.392.345-.727.535-1.062.38-.61.83-1.047 1.14-1.33l.056-.061c.03-.002.028-.031.057-.033.028-.03.086-.063.114-.094a.618.618 0 0 1 .17-.127c.085-.064.143-.096.143-.096s-.058.032-.143.096a.618.618 0 0 0-.17.127.406.406 0 0 1-.114.094c-.029.002-.028.031-.057.033l-.056.062c-.34.283-.76.719-1.17 1.33-.19.306-.378.67-.535 1.062-.026.06-.025.09-.05.15 0 .03-.027.061-.026.09.002.03-.026.06-.024.09-.025.09-.078.211-.101.33-.023.12-.048.21-.072.329.002.03-.026.06-.024.09.001.03.003.059-.025.09.003.059-.023.12-.02.178.003.059-.024.12-.02.178l-.025.09.004.088c.003.06-.023.12-.02.179a.374.374 0 0 1-.02.178l.005.088.004.089.01.176.018.354a6.22 6.22 0 0 0 .283 1.461l.068.174.069.173c.032.058.035.117.068.174.032.057.035.116.068.174.1.23.229.43.36.66.128.2.286.398.414.598.033.058.064.085.126.141.03.028.032.058.062.056l.062.056c.032.057.093.084.125.14l.124.113c.156.169.34.306.525.444s.369.276.552.385c.183.108.365.217.547.296.091.054.181.08.272.133.03-.001-.043-.263-.103-.29z"/></g><g opacity=".7"><g opacity=".7"><g opacity=".7"><g opacity=".7"><path fill="#3b3a3a" d="M5.49 10.847c.09-.005.148-.008.182.08.031.027.034.086.037.145l.013.235a1.87 1.87 0 0 1-.083.684c-.05.15-.105.242-.131.302 0 0-.005-.088-.04-.205l-.011-.206-.007-.117-.006-.118a2.091 2.091 0 0 1 .007-.443c-.007-.118.018-.208.018-.208s.005.088-.018.208c-.024.119-.016.266-.007.443l.023.441.008.148.003.059c-.03-.028-.122-.083-.189-.227l-.102-.26a.84.84 0 0 1-.02-.383.935.935 0 0 1 .126-.42c.054-.091.139-.155.198-.158z"/></g><g opacity=".7"><path fill="#3b3a3a" d="M3.61 13.249c.032.057.064.115.126.17.031.028.062.056.092.055.03.028.06.026.091.054.09.025.178.02.267.015.117-.006.204-.04.35-.077.203-.07.345-.166.459-.26.113-.095.196-.188.252-.25.11-.153.163-.274.16-.333 0 0-.087.034-.231.1a2.033 2.033 0 0 1-.23.102c-.088.034-.174.068-.29.103-.204.07-.377.138-.552.177a.519.519 0 0 1-.175.039l-.06.003s.03-.002.058-.033a.42.42 0 0 0 .174-.068l.26-.102c.059-.003.087-.034.144-.067.057-.032.087-.034.144-.066.087-.035.174-.069.259-.132a2.03 2.03 0 0 0 .23-.1l.173-.098c.028-.031.057-.033.057-.033-.03.002-.06-.026-.15-.051a.574.574 0 0 0-.237-.017l-.353.018c-.06.003-.146.037-.234.042a.86.86 0 0 0-.262.073 1.056 1.056 0 0 0-.318.135c-.087.034-.142.096-.17.127-.106.241-.1.36-.035.474z"/></g></g><g opacity=".7"><g opacity=".7"><path fill="#3b3a3a" d="M4.815 10.351c.089-.005.12.023.154.11.001.03.034.087.008.147.003.06-.022.15-.018.237a1.46 1.46 0 0 1-.097.39c-.023.119-.078.21-.104.27-.08.152-.166.216-.194.247 0 0-.004-.088.019-.208-.006-.117.015-.266.037-.415.022-.149.044-.298.067-.417.023-.12.05-.18.05-.18s-.027.06-.05.18c-.027.06-.023.12-.05.18-.026.06-.022.149-.048.21-.022.148-.043.297-.067.416-.023.12-.018.208-.018.208a.9.9 0 0 1-.161-.258c-.002-.03-.034-.086-.036-.116l-.008-.147a.374.374 0 0 1 .02-.178c-.003-.06.024-.12.049-.21.024-.09.05-.18.076-.24a.642.642 0 0 1 .11-.153.224.224 0 0 1 .114-.065l.147-.008z"/></g><g opacity=".7"><path fill="#3b3a3a" d="M2.585 12.299c.002.03.003.058.035.086.001.03.032.058.063.086.032.057.093.083.155.14.06.026.15.05.24.075l.147-.008.177-.009c.088-.004.175-.039.262-.073.087-.034.144-.066.201-.099.115-.065.23-.13.285-.192.141-.125.194-.246.22-.307 0 0-.086.034-.232.072-.03.001-.087.034-.116.035-.03.002-.087.034-.116.036-.087.034-.176.039-.293.045-.089.004-.205.04-.293.045-.088.004-.177.009-.264.043l-.265.014s.089-.005.264-.044a.816.816 0 0 0 .263-.043c.089-.005.205-.04.293-.045.205-.04.38-.079.524-.145.146-.037.232-.072.232-.072-.03-.027-.06-.026-.12-.052-.06-.027-.15-.051-.24-.076-.03.001-.06.003-.09-.025-.03.001-.06.003-.09-.025-.06.003-.12-.023-.208-.019l-.235.013-.266.014c-.264.014-.438.082-.522.175-.023.119-.046.238-.01.355z"/></g></g><g opacity=".7"><g opacity=".7"><path fill="#3b3a3a" d="M4.22 9.703c.061.026.121.053.126.141l.008.147a.471.471 0 0 1-.076.24c-.051.15-.106.242-.158.363a1.635 1.635 0 0 1-.165.245c-.082.122-.196.187-.224.218L3.728 11c-.002-.03.024-.09.021-.15.024-.119.075-.269.128-.39.05-.15.103-.27.127-.39.054-.092.079-.182.079-.182l-.08.182a2.389 2.389 0 0 0-.156.392c-.026.06-.051.15-.077.21a.42.42 0 0 0-.05.18c-.026.06-.025.09-.053.121.002.03-.026.06-.026.06-.031-.027-.065-.114-.104-.29-.005-.088-.01-.176.016-.266a1.66 1.66 0 0 1 .099-.36.778.778 0 0 1 .248-.337c.173-.068.26-.102.32-.076z"/></g><g opacity=".7"><path fill="#3b3a3a" d="M1.76 11.19a.474.474 0 0 0 .164.316.9.9 0 0 0 .568.148c.207-.01.354-.019.5-.056a.83.83 0 0 0 .317-.135c.172-.097.226-.189.253-.249l-.06.003-.176.01-.53.027c-.088.005-.206.01-.296-.014-.088.005-.178-.02-.237-.017-.059.003-.149-.022-.178-.02l-.059.003.059-.003c.03-.002.118-.006.178.02a.733.733 0 0 1 .237.017 5439.042 5439.042 0 0 1 .56-.03l.235-.012.177-.009.059-.003c-.031-.028-.062-.056-.123-.082-.03-.028-.06-.026-.091-.054s-.09-.025-.121-.053c-.181-.08-.45-.124-.806-.165a.603.603 0 0 0-.323.017c-.089.005-.146.038-.203.07-.087.034-.11.154-.104.271z"/></g></g><g opacity=".7"><g opacity=".7"><path fill="#3b3a3a" d="M3.768 8.959c.031.028.06.026.092.054.03.028.032.058.034.087.001.03-.025.09-.022.149-.026.06-.053.12-.107.212-.082.123-.136.214-.22.307-.054.091-.14.155-.195.217-.113.094-.2.128-.258.161l.08-.181c.054-.092.105-.242.187-.364.082-.123.135-.244.19-.335.027-.031.054-.092.081-.123l.028-.03-.028.03-.083.093a8.242 8.242 0 0 1-.219.337 2.203 2.203 0 0 0-.187.364.834.834 0 0 0-.08.181c-.03-.028-.066-.144-.044-.293-.005-.088.021-.149.045-.268.024-.09.077-.21.16-.333.11-.153.222-.248.31-.282.088-.005.176-.01.236.017z"/></g><g opacity=".7"><path fill="#3b3a3a" d="M1.134 9.953c-.023.12.012.236.107.35.094.112.246.193.514.238.09.025.178.02.268.045l.206-.01a1.06 1.06 0 0 0 .321-.077.716.716 0 0 0 .285-.192s-.088.005-.237-.017c-.03.002-.059.003-.12-.023-.029.001-.089-.025-.118-.024-.09-.024-.179-.02-.268-.045a2.488 2.488 0 0 1-.509-.12c-.15-.052-.24-.077-.24-.077s.09.025.239.047c.148.022.328.071.506.092.179.02.357.04.506.062.148.021.237.017.237.017-.031-.028-.033-.058-.093-.084-.031-.028-.093-.084-.185-.138-.153-.11-.395-.215-.753-.285-.24-.076-.387-.068-.503-.033a.43.43 0 0 0-.163.274z"/></g></g><g opacity=".7"><g opacity=".7"><path fill="#3b3a3a" d="M3.46 8.148c.06.027.093.084.068.174a.224.224 0 0 1-.052.12c-.027.061-.083.123-.138.185a1.903 1.903 0 0 1-.253.25c-.085.063-.141.125-.198.158a.867.867 0 0 1-.26.102l.027-.031c.028-.031.056-.062.082-.122.055-.092.137-.214.25-.309.082-.122.195-.217.251-.279.085-.063.112-.124.112-.124l-.112.124c-.085.064-.167.186-.251.28-.084.092-.195.216-.25.308-.028.03-.054.091-.083.093l-.028.03c-.002-.029-.037-.145.015-.266.022-.149.13-.332.327-.52.141-.125.256-.19.343-.224 0 0 .09.025.15.051z"/></g><g opacity=".7"><path fill="#3b3a3a" d="M.77 8.644c-.026.06-.023.119-.02.178a.419.419 0 0 0 .068.174c.031.027.033.057.064.085l.093.083a.57.57 0 0 0 .272.134c.182.079.33.1.448.094.12.024.237.018.324-.016.175-.04.29-.104.318-.135 0 0-.03.001-.06-.027-.03.002-.09-.024-.151-.05-.06-.027-.15-.052-.21-.078-.032-.028-.09-.025-.122-.053-.03-.028-.09-.025-.12-.053-.09-.025-.182-.079-.242-.105-.09-.025-.152-.08-.213-.107-.12-.053-.212-.107-.212-.107s.09.025.212.107c.06.026.15.051.211.077.09.025.18.05.242.106.18.05.33.1.48.152.06.026.12.023.15.051.03-.002.06.026.06.026 0-.03-.032-.057-.064-.114a.778.778 0 0 0-.157-.17 1.037 1.037 0 0 0-.275-.192c-.06-.026-.123-.082-.183-.108-.06-.027-.152-.08-.212-.107-.213-.107-.361-.129-.48-.123a.419.419 0 0 0-.22.278z"/></g></g><g opacity=".7"><g opacity=".7"><path fill="#3b3a3a" d="M3.268 7.302c.031.028.033.057.064.085l.004.089c-.026.06-.11.153-.25.279a1.103 1.103 0 0 1-.286.192.47.47 0 0 1-.23.1c-.146.038-.235.042-.264.044l.111-.124c.028-.031.086-.064.141-.126.058-.032.114-.094.142-.125a.644.644 0 0 0 .14-.126c.058-.032.086-.063.143-.096.085-.063.143-.096.143-.096s-.058.033-.143.096c-.028.031-.085.064-.142.096-.058.033-.114.095-.171.127a3.381 3.381 0 0 0-.282.251c-.085.064-.141.126-.141.126l-.005-.088c-.001-.03-.003-.06.025-.09-.001-.03.026-.06.025-.09.026-.06.082-.123.136-.214.056-.062.14-.155.255-.22a.703.703 0 0 1 .347-.136c.116-.036.206-.011.238.046z"/></g><g opacity=".7"><path fill="#3b3a3a" d="M.639 7.263c-.027.06-.055.091-.051.15l.004.088c.002.03.003.06.034.087.033.058.065.115.129.2.062.056.125.141.246.194.152.08.304.161.423.185.12.023.21.048.298.043.176-.01.293-.045.32-.076 0 0-.09-.025-.182-.108a2.371 2.371 0 0 1-.426-.244.409.409 0 0 0-.123-.082l-.093-.084c-.062-.056-.122-.082-.184-.138-.06-.026-.093-.083-.124-.111C.879 7.339.85 7.34.85 7.34s.029-.001.06.027c.03.028.091.054.122.082.06.026.123.082.183.108.062.056.152.081.214.137.091.054.152.08.214.136.03.028.06.027.091.055.031.027.06.026.092.054l.18.079c-.002-.059-.066-.144-.162-.287-.03-.028-.063-.085-.094-.113-.031-.028-.064-.085-.124-.112-.033-.057-.093-.083-.155-.14-.062-.055-.123-.081-.185-.137-.184-.138-.334-.19-.452-.183-.056.062-.141.125-.195.217z"/></g></g><g opacity=".7"><g opacity=".7"><path fill="#3b3a3a" d="M3.251 6.417c.031.028.033.058.034.087.002.03.004.059-.024.09l-.084.093-.172.097c-.23.13-.403.199-.55.206-.146.038-.236.013-.267-.015 0 0 .058-.033.143-.096.085-.064.2-.129.315-.194l.171-.097c.058-.033.115-.065.145-.067.057-.033.086-.034.114-.065.03-.002.028-.031.028-.031s-.057.032-.144.067a2.87 2.87 0 0 0-.316.164c-.115.065-.23.13-.315.193-.057.033-.085.064-.114.065-.03.002-.028.031-.028.031-.002-.029-.003-.058.025-.09a.646.646 0 0 0 .08-.151c.028-.031.056-.062.054-.092l.084-.093a.922.922 0 0 1 .287-.162c.144-.067.29-.104.38-.08.06.027.122.083.154.14z"/></g><g opacity=".7"><path fill="#3b3a3a" d="M.746 5.928c-.054.092-.109.183-.071.329.003.059.035.116.099.201.03.028.063.086.094.114.031.028.064.085.124.111.124.112.247.194.367.247.121.052.211.077.3.102.18.02.267.016.326.013l-.155-.14-.34-.307a3.53 3.53 0 0 1-.343-.336c-.093-.084-.156-.17-.156-.17l.155.14.34.307c.124.112.278.222.37.276.06.027.09.054.122.082.03.028.06.027.06.027-.003-.06-.008-.148-.105-.32-.067-.144-.225-.342-.443-.567l-.217-.195c-.062-.056-.123-.082-.182-.08-.175.04-.261.073-.345.166z"/></g></g><g opacity=".7"><g opacity=".7"><path fill="#3b3a3a" d="M3.411 5.523c.033.057.036.116-.02.178-.056.062-.143.096-.287.163-.232.071-.437.111-.556.088a.498.498 0 0 1-.268-.045s.057-.032.144-.067c.087-.034.201-.099.347-.136.057-.032.116-.035.174-.068a.32.32 0 0 1 .145-.037c.087-.034.146-.037.146-.037s-.059.003-.146.037c-.059.003-.086.034-.175.039a.418.418 0 0 0-.173.068l-.35.107c-.056.032-.086.034-.115.035l-.03.002c-.001-.03.053-.121.137-.214.028-.031.056-.062.085-.064.028-.03.056-.062.115-.065.086-.034.172-.097.29-.103.174-.04.263-.044.353-.019.119.023.151.08.184.138z"/></g><g opacity=".7"><path fill="#3b3a3a" d="M1.09 4.611c-.028.031-.056.062-.082.123-.026.06-.025.09-.022.148.003.06.007.118.04.205a.521.521 0 0 0 .16.228c.19.256.404.392.555.443.15.051.268.045.297.044 0 0-.001-.03-.03-.028a.408.408 0 0 1-.095-.113c-.093-.084-.19-.227-.284-.34-.03-.028-.062-.056-.063-.085-.031-.028-.033-.058-.064-.085-.032-.058-.094-.114-.127-.17a.729.729 0 0 0-.127-.171s.033.057.127.17c.033.057.095.113.127.17.033.058.095.114.158.199.095.113.22.254.284.34.032.057.063.085.094.113l.031.028c-.003-.06.022-.15-.046-.323-.002-.03-.034-.087-.036-.116-.032-.057-.034-.087-.066-.144-.066-.115-.13-.23-.225-.343-.127-.17-.222-.283-.311-.308-.121-.053-.21-.048-.295.015z"/></g></g><g opacity=".7"><g opacity=".7"><path fill="#3b3a3a" d="M3.72 4.65c.003.06.006.118-.051.15-.028.032-.058.033-.115.066-.06.003-.116.036-.205.04l-.324.017c-.088.005-.178-.02-.237-.017a.564.564 0 0 1-.241-.105l.03-.002a.223.223 0 0 0 .115-.036c.087-.034.205-.04.35-.077.118-.006.234-.042.323-.046l.147-.008-.147.008c-.088.004-.206.01-.352.048-.118.006-.234.041-.352.048-.088.004-.145.037-.145.037s-.002-.03.028-.031l.028-.031c.027-.031.055-.062.113-.095.057-.032.114-.065.201-.099.087-.034.175-.039.322-.046a1.1 1.1 0 0 1 .357.04c.09.025.152.08.155.14z"/></g><g opacity=".7"><path fill="#3b3a3a" d="M1.676 3.4a.367.367 0 0 0-.164.244c.003.06-.023.12.01.206a.476.476 0 0 0 .103.26c.066.145.16.258.224.343.064.086.155.14.217.196a.58.58 0 0 0 .271.103s-.001-.029-.032-.057-.033-.057-.065-.115a2.388 2.388 0 0 1-.197-.373c-.066-.144-.133-.288-.198-.403a.955.955 0 0 0-.068-.174s.034.087.097.172c.065.115.132.26.199.403.066.145.16.258.226.372.032.058.063.086.065.115.03.028.032.057.032.057-.001-.029.027-.06.024-.119l-.011-.206c-.008-.147-.08-.38-.212-.668-.034-.087-.098-.172-.13-.23-.033-.057-.095-.113-.124-.111a.286.286 0 0 0-.267-.016z"/></g></g><g opacity=".7"><g opacity=".7"><path fill="#3b3a3a" d="M4.182 3.888a.162.162 0 0 1-.081.152c-.03.002-.057.033-.116.036l-.177.009c-.118.006-.207-.019-.297-.044-.09-.024-.15-.05-.21-.048a.734.734 0 0 1-.213-.136l.029-.002.118-.006c.088-.004.206-.01.325.013.118-.007.237.017.326.012a.358.358 0 0 1 .148.022s-.059.003-.148-.022c-.09-.025-.208-.019-.327-.042-.118.006-.237-.017-.326-.012l-.147.007s-.001-.029.028-.03l.028-.032a.225.225 0 0 1 .144-.066c.057-.033.116-.036.203-.07l.294-.015c.15.021.268.045.33.1a.316.316 0 0 1 .069.174z"/></g><g opacity=".7"><path fill="#3b3a3a" d="M2.476 2.324c-.087.034-.172.098-.195.217a.374.374 0 0 0-.02.178c.004.088.009.177.043.264.037.145.102.26.166.345.063.085.127.17.16.228.123.112.213.137.244.164 0 0-.002-.029-.033-.057-.001-.03-.034-.087-.035-.116-.036-.116-.073-.262-.14-.406-.037-.146-.074-.292-.11-.408-.035-.116-.04-.204-.04-.204s.005.088.039.175c.036.116.073.262.11.407.037.146.104.29.138.377.032.057.034.087.065.115.001.03.032.057.032.057.028-.031.053-.12.073-.3.022-.148.01-.354-.063-.645-.034-.087-.039-.176-.072-.233a.647.647 0 0 0-.096-.142c-.09-.025-.18-.05-.266-.016z"/></g></g><g opacity=".7"><g opacity=".7"><path fill="#3b3a3a" d="M4.794 3.177c.003.059-.025.09-.112.124l-.059.003-.059.003c-.058.003-.119-.023-.178-.02a1.83 1.83 0 0 1-.482-.182c-.091-.054-.155-.14-.186-.167 0 0 .06-.003.15.022.09.025.208.048.328.071.119.023.209.048.299.073.09.025.15.051.15.051s-.06-.026-.15-.051a.499.499 0 0 1-.15-.051c-.061-.027-.12-.023-.15-.051a4.811 4.811 0 0 1-.33-.072c-.029.002-.09-.025-.119-.023l-.03.002c.029-.031.086-.064.202-.1.06-.003.117-.035.206-.01.089-.005.179.02.298.043.15.051.242.106.274.163.092.054.095.113.098.172z"/></g><g opacity=".7"><path fill="#3b3a3a" d="M3.432 1.418c-.088.004-.173.068-.228.16-.026.06-.054.09-.05.179.004.059-.021.149.015.265.044.293.113.466.207.58.095.113.157.169.217.195 0 0-.003-.059-.039-.175-.006-.118-.043-.264-.05-.41-.009-.148-.016-.295-.022-.413l-.01-.177.01.177.009.177.006.117.006.118c.008.147.045.293.08.38.002.059.033.087.035.116l.003.059a.552.552 0 0 0 .104-.271c-.002-.03.025-.09.023-.12-.002-.029.025-.09.022-.148.025-.09.017-.237.01-.385a.576.576 0 0 0-.043-.234.225.225 0 0 0-.066-.144.555.555 0 0 0-.239-.046z"/></g></g><g opacity=".7"><g opacity=".7"><path fill="#3b3a3a" d="M5.502 2.608c-.023.12-.14.155-.412.022a1.239 1.239 0 0 1-.428-.273c-.093-.084-.125-.141-.127-.17l.03-.002c.03-.002.06.026.09.025.09.025.18.079.3.102.06.026.091.054.15.051.06.027.092.055.121.053l.121.053-.12-.053a.224.224 0 0 0-.122-.053c-.06-.026-.091-.054-.151-.08a4.666 4.666 0 0 1-.423-.185c.027-.03.116-.035.204-.04a.576.576 0 0 1 .208.019c.09.024.18.05.27.103a.56.56 0 0 1 .247.194c.065.115.068.174.042.234z"/></g><g opacity=".7"><path fill="#3b3a3a" d="M4.517.711a.335.335 0 0 0-.231.1.644.644 0 0 0-.08.153.555.555 0 0 0-.047.238c-.014.296.025.471.09.586.065.115.128.2.16.228l-.004-.059-.006-.118c-.005-.088.017-.237.01-.384l-.007-.118c-.001-.03-.003-.059.025-.09-.003-.059.023-.119.02-.178.023-.12.02-.178.02-.178s.003.059-.02.178c.003.059-.023.12-.02.178.003.06-.022.15-.019.208-.014.296 0 .561 0 .561.028-.031.084-.093.166-.215.028-.031.026-.06.053-.121.028-.031.025-.09.052-.121.025-.09.048-.21.07-.358-.004-.088.02-.178.017-.237C4.763.904 4.76.846 4.73.818 4.695.731 4.605.706 4.517.711z"/></g></g></g><g opacity=".7"><path fill="#3b3a3a" d="M5.764 1.413c.036.117.014.265-.246.368a.475.475 0 0 1-.26.102l-.06.003-.058.003-.089.005c-.118.006-.178-.02-.207-.019l.114-.065a.223.223 0 0 1 .115-.065s.03-.002.028-.031c0 0 .03-.002.028-.031.03-.002.057-.033.086-.034.058-.033.086-.064.145-.067.03-.001.057-.032.057-.032.03-.002.028-.031.057-.033.087-.034.115-.065.115-.065l-.115.065c-.03.002-.028.031-.057.033-.03.001-.057.032-.057.032-.058.033-.086.064-.145.067-.029.001-.057.032-.086.034 0 0-.03.002-.028.031 0 0-.03.002-.028.03-.057.033-.085.064-.115.066-.086.034-.114.065-.114.065a.513.513 0 0 1 .077-.21c.028-.032.026-.061.054-.092l.028-.031s.028-.031.058-.033c.055-.062.142-.096.257-.16.144-.067.232-.072.32-.077.061.027.123.083.126.141z"/></g></g></g></g><g opacity=".88"><g opacity=".88"><path fill="#3b3a3a" d="M11.723 9.348c0 .043-.043.13-.086.173-.56.69-1.336.99-2.241.99-.948 0-1.723-.344-2.326-.99-.56-.647-.862-1.422-.862-2.37 0-.948.301-1.723.862-2.37.603-.69 1.335-1.034 2.283-1.034.991 0 1.767.302 2.327.905.043.086.086.13.086.172 0 .043-.086.259-.302.647-.215.387-.344.603-.387.646-.044.043-.044.043-.087.043 0 0-.086-.043-.215-.172-.172-.13-.345-.259-.474-.345a1.69 1.69 0 0 0-.776-.172c-.43 0-.818.172-1.077.517-.258.301-.387.69-.387 1.163 0 .474.129.862.387 1.163.259.345.646.517 1.077.517.259 0 .517-.043.776-.172a2.9 2.9 0 0 0 .474-.302c.129-.129.215-.172.215-.172.043 0 .043 0 .087.043.043.043.172.259.387.56.13.345.259.517.259.56z"/></g><g opacity=".88"><path fill="#3b3a3a" d="M16.591 7.151c0 .43-.172.819-.43 1.12a1.45 1.45 0 0 1-1.12.517c-.475 0-.82-.129-1.12-.474-.302-.301-.432-.689-.432-1.163 0-.43.13-.819.431-1.163a1.45 1.45 0 0 1 1.12-.517c.474 0 .819.172 1.12.517.302.301.431.69.431 1.163zm.819-2.413c-.646-.646-1.422-.99-2.37-.99-.948 0-1.723.344-2.37.99-.603.647-.904 1.465-.904 2.413 0 .991.301 1.767.905 2.413.646.646 1.421.99 2.37.99.947 0 1.723-.344 2.369-.99.603-.646.905-1.465.905-2.413a3.5 3.5 0 0 0-.905-2.413z"/></g><g opacity=".88"><path fill="#3b3a3a" d="M22.968 7.108c0 .56-.129.99-.43 1.379-.302.344-.733.517-1.25.517-.474 0-.733-.086-.733-.216V7.97 7.15v-.819-.818c0-.13.216-.173.69-.173.517 0 .948.173 1.25.517.3.302.473.733.473 1.25zm1.767 0c0-.474-.13-.948-.302-1.422-.215-.517-.517-.905-.905-1.163-.43-.302-.99-.474-1.723-.56-.302-.043-.905-.043-1.853-.043-.517 0-.862 0-1.077.043-.086.043-.13.086-.13.129 0 .345 0 .905.044 1.594.043.733.043 1.25.043 1.594 0 .345 0 .819-.043 1.508-.043.647-.043 1.164-.043 1.508 0 .043.043.086.129.086H21.719c.905-.043 1.637-.344 2.154-.947a3.45 3.45 0 0 0 .862-2.327z"/></g><g opacity=".88"><path fill="#3b3a3a" d="M29.862 8.96c0 .13-.043.388-.086.733-.043.388-.086.603-.13.69-.043.043-.086.086-.172.086h-.13c-.215-.043-.86-.043-1.981-.043H25.252c-.086 0-.173-.044-.173-.13 0-.344 0-.861.043-1.55.044-.69.044-1.207.044-1.552s0-.99-.044-1.939c0-.258-.043-.603-.043-1.077v-.043c0-.086.043-.086.13-.086h4.136c.172 0 .258.043.258.172 0 .086.044.302.087.647.043.344.043.56.043.646a.093.093 0 0 1-.086.086h-.087c-.818-.086-1.55-.086-2.197-.086-.172 0-.259.043-.302.13 0 .042-.043.171-.043.344 0 .215.043.344.086.43.044.044.173.087.302.087h.388c.388 0 .775 0 1.163-.043.043 0 .13 0 .259-.043h.258c.086 0 .13.043.13.086 0-.043-.044.172-.087.69-.043.258-.043.473-.043.732 0 .043-.043.086-.13.086 0 0-.128 0-.43-.043-.172 0-.56-.043-1.206-.043h-.474c-.13 0-.216.043-.216.086v.301c0 .216 0 .388.043.431.043.13.259.173.604.216h.689c.172 0 .388 0 .732-.043.302-.044.56-.044.733-.044 0-.086.043-.043.043.087z"/></g><g opacity=".88"><path fill="#3b3a3a" d="M42.184 10.296c0 .043 0 .086-.043.13 0 0-.043 0-.129.043-.172 0-.43.043-.775.043-.474 0-.733 0-.819-.043-.086 0-.13-.043-.13-.13 0-.215 0-.603.044-1.034 0-.474.043-.818.043-1.034 0-.129-.043-.172-.086-.215-.086-.043-.474-.043-1.078-.043-.603 0-.99 0-1.077.043-.086 0-.086.086-.086.215 0 .216 0 .56.043 1.034v1.034c0 .087-.043.13-.129.173-.086 0-.388.043-.862.043-.387 0-.646 0-.775-.043-.086 0-.13-.043-.13-.13 0-.301 0-.818.044-1.421.043-.647.043-1.12.043-1.465s0-.862-.043-1.551c-.043-.69-.043-1.207-.043-1.551 0-.087.043-.087.086-.087h1.723c.043 0 .086.043.086.087 0 .215 0 .56-.043.99-.043.431-.043.776-.043.991 0 .087.043.173.086.173.087.043.474.043 1.164.043.646 0 .99 0 1.12-.043.086 0 .086-.086.086-.173 0-.215 0-.517-.043-.947 0-.431-.043-.733-.043-.948 0-.086.043-.13.13-.13h1.55c.087 0 .13.044.13.087 0 .344 0 .861-.043 1.55-.044.69-.044 1.207-.044 1.552 0 .301 0 .818.044 1.465.042.517.042.99.042 1.292z"/></g><g opacity=".88"><path fill="#3b3a3a" d="M47.312 9.047c0 .13-.043.344-.086.69-.043.387-.086.602-.13.645-.042.044-.086.087-.129.087h-.13c-.214-.043-.86-.043-1.895-.043h-2.068c-.086 0-.13-.044-.13-.13 0-.344 0-.818.044-1.508.043-.646.043-1.163.043-1.508 0-.344 0-.948-.043-1.895 0-.216-.043-.604-.043-1.078v-.043c0-.086.043-.086.129-.086h3.963c.173 0 .26.043.26.172 0 .087.042.259.086.604.043.344.043.56.043.603 0 .043-.043.086-.087.086h-.086c-.775-.086-1.508-.086-2.154-.086-.172 0-.258.043-.302.13 0 .042-.043.128-.043.344 0 .215.043.344.087.388.043.043.129.086.301.086h.388c.388 0 .776 0 1.12-.043.043 0 .13 0 .259-.043h.258c.086 0 .13.043.13.086 0-.043-.044.172-.087.69-.043.215-.043.473-.043.688 0 .044-.043.087-.13.087 0 0-.128 0-.387-.043-.172 0-.56-.044-1.163-.044h-.474c-.13 0-.172.044-.216.087v.258c0 .216 0 .388.044.431.043.13.258.172.56.215h.646c.172 0 .388 0 .69-.043.3-.043.56-.043.689-.043.043.13.086.173.086.259z"/></g><g opacity=".88"><path fill="#3b3a3a" d="M52.224 5.686c0 .043-.043.043-.087.043-.215 0-.56 0-1.034-.043s-.775-.043-1.034-.043c-.301 0-.43 0-.517.043-.129.043-.172.172-.172.431s.086.43.215.474c.043 0 .173.043.259.043.215 0 .517 0 .905-.043.43-.043.732-.043.904-.043.087 0 .13.258.13.775 0 .431 0 .733-.043.776 0 .043-.043.086-.13.086.043 0-.043 0-.301-.043-.302-.043-.819-.043-1.465-.043h-.345c-.172.043-.215.086-.215.172 0 .431 0 .905.043 1.465.043.474.043.69.043.647 0 .086-.086.129-.302.129h-.388c-.56 0-.904 0-1.077-.043-.086 0-.129-.086-.129-.13 0-.344 0-.818.043-1.464.043-.647.043-1.164.043-1.465 0-.388 0-.862-.043-1.465-.043-.905-.086-1.38-.086-1.465v-.043c0-.087.043-.13.13-.13H49.551c.259 0 .603 0 1.077-.043s.819-.043 1.078-.043c.129 0 .215.043.258.173v.56c0 .086.043.172.043.387.216.13.216.259.216.345z"/></g><g opacity=".88"><path fill="#3b3a3a" d="M36.842 8.228c.043.043 0 .13 0 .259-.258.948-.862 1.637-1.767 2.068-.947.43-1.852.474-2.757.086-.862-.388-1.508-1.034-1.939-2.025a3.972 3.972 0 0 1-.215-2.8c.301-.949.862-1.638 1.81-2.069.99-.474 1.895-.517 2.714-.129.086.043.129.086.172.13.043.042 0 .344-.043.818s-.086.732-.13.819c0 .043-.042.043-.086.086 0 0-.129 0-.301-.086a1.729 1.729 0 0 0-.646-.13c-.302 0-.56.043-.819.173-.43.215-.733.56-.862.99-.086.431-.043.862.13 1.336.215.474.517.819.904 1.034.431.216.862.216 1.293.043.258-.129.474-.301.69-.517.129-.129.215-.344.344-.56l.13-.258h.128c.087.043.302.172.647.387.388.173.603.345.603.345z"/></g></g></g></svg>