<svg xmlns="http://www.w3.org/2000/svg" width="70" height="12" viewBox="0 0 70 12"><g><g><g><path fill="#3b3a3a" d="M8.894 9.649a.493.493 0 0 1-.13.26c-.845 1.04-2.015 1.495-3.38 1.495-1.43 0-2.6-.52-3.51-1.495-.846-.975-1.3-2.145-1.3-3.575 0-1.43.454-2.6 1.3-3.576.91-1.04 2.014-1.56 3.444-1.56 1.496 0 2.666.455 3.51 1.365.066.13.13.195.13.26s-.13.39-.454.975c-.325.586-.52.91-.585.976-.065.065-.065.065-.13.065 0 0-.13-.065-.325-.26-.26-.195-.52-.39-.716-.52-.39-.195-.78-.26-1.17-.26-.65 0-1.235.26-1.625.78-.39.455-.585 1.04-.585 1.755 0 .715.195 1.3.585 1.755.39.52.975.78 1.626.78.39 0 .78-.065 1.17-.26.26-.13.455-.26.715-.455.194-.195.325-.26.325-.26.065 0 .065 0 .13.065s.26.39.585.845c.195.52.39.78.39.845z"/></g><g><path fill="#3b3a3a" d="M16.24 6.334c0 .65-.26 1.235-.65 1.69-.456.52-1.041.78-1.69.78-.716 0-1.236-.195-1.691-.715-.455-.455-.65-1.04-.65-1.755 0-.65.195-1.235.65-1.755.455-.52 1.04-.78 1.69-.78.715 0 1.235.26 1.69.78.455.455.65 1.04.65 1.755zm1.234-3.64C16.5 1.717 15.33 1.197 13.9 1.197c-1.43 0-2.6.52-3.575 1.495-.91.975-1.365 2.21-1.365 3.64 0 1.496.455 2.666 1.365 3.64.975.976 2.145 1.496 3.575 1.496 1.43 0 2.6-.52 3.575-1.495.91-.975 1.365-2.21 1.365-3.64 0-1.43-.455-2.6-1.365-3.64z"/></g><g><path fill="#3b3a3a" d="M25.21 8.349c-.455.52-1.105.78-1.885.78-.715 0-1.105-.13-1.105-.325V7.569 6.334 5.099 3.863c0-.195.325-.26 1.04-.26.78 0 1.43.26 1.885.78.455.456.715 1.106.715 1.886 0 .845-.195 1.495-.65 2.08zm3.315-2.08c0-.715-.195-1.43-.455-2.146-.325-.78-.78-1.365-1.365-1.755-.65-.455-1.495-.715-2.6-.845-.455-.065-1.365-.065-2.795-.065-.78 0-1.3 0-1.626.065-.13.065-.195.13-.195.195 0 .52 0 1.365.065 2.405.065 1.106.065 1.886.065 2.406 0 .52 0 1.235-.065 2.275-.065.975-.065 1.755-.065 2.275 0 .065.065.13.195.13h4.29c1.366-.065 2.471-.52 3.251-1.43.845-.975 1.3-2.145 1.3-3.51z"/></g><g><path fill="#3b3a3a" d="M36.26 9.064c0 .195-.065.585-.13 1.105-.065.585-.13.91-.195 1.04-.065.065-.13.13-.26.13h-.195c-.325-.065-1.3-.065-2.99-.065h-3.185c-.13 0-.26-.065-.26-.195 0-.52 0-1.3.065-2.34.065-1.04.065-1.82.065-2.34 0-.52 0-1.495-.065-2.926 0-.39-.065-.91-.065-1.625v-.065c0-.13.065-.13.195-.13h6.24c.26 0 .39.065.39.26 0 .13.065.455.13.975s.065.845.065.975a.14.14 0 0 1-.13.13h-.13c-1.235-.13-2.34-.13-3.315-.13-.26 0-.39.065-.455.196 0 .065-.065.26-.065.52 0 .325.065.52.13.65.065.065.26.13.455.13h.585c.585 0 1.17 0 1.755-.065.066 0 .195 0 .39-.065h.39c.13 0 .195.065.195.13 0-.065-.065.26-.13 1.04-.065.39-.065.715-.065 1.105 0 .065-.065.13-.195.13 0 0-.195 0-.65-.065-.26 0-.845-.065-1.82-.065h-.715c-.195 0-.325.065-.325.13v.455c0 .325 0 .585.065.65.065.195.39.26.91.325h1.04c.26 0 .585 0 1.105-.065.455-.065.846-.065 1.105-.065 0-.13.065-.065.065.13z"/></g><g><path fill="#3b3a3a" d="M54.852 11.079c0 .065 0 .13-.065.195 0 0-.065 0-.195.065-.26 0-.65.065-1.17.065-.716 0-1.105 0-1.235-.065-.13 0-.195-.065-.195-.195 0-.325 0-.91.065-1.56 0-.715.065-1.235.065-1.56 0-.195-.065-.26-.13-.325-.13-.065-.715-.065-1.626-.065-.91 0-1.495 0-1.625.065-.13 0-.13.13-.13.325 0 .325 0 .845.065 1.56v1.56c0 .13-.065.195-.194.26-.13 0-.586.065-1.301.065-.585 0-.975 0-1.17-.065-.13 0-.195-.065-.195-.195 0-.455 0-1.235.065-2.145.065-.975.065-1.69.065-2.21s0-1.3-.065-2.34c-.065-1.04-.065-1.82-.065-2.34 0-.13.065-.13.13-.13h2.6c.065 0 .13.064.13.13 0 .324 0 .844-.065 1.494-.064.65-.064 1.17-.064 1.496 0 .13.064.26.13.26.13.065.714.065 1.754.065.976 0 1.495 0 1.69-.065.13 0 .13-.13.13-.26 0-.325 0-.78-.064-1.43 0-.65-.065-1.106-.065-1.43 0-.13.065-.196.195-.196h2.34c.13 0 .195.065.195.13 0 .52 0 1.3-.065 2.34-.065 1.04-.065 1.82-.065 2.34 0 .456 0 1.236.065 2.21.065.78.065 1.496.065 1.951z"/></g><g><path fill="#3b3a3a" d="M62.587 9.194c0 .195-.065.52-.13 1.04-.065.585-.13.91-.195.975-.065.065-.13.13-.195.13h-.195c-.325-.065-1.3-.065-2.86-.065h-3.12c-.13 0-.195-.065-.195-.195 0-.52 0-1.235.065-2.275.065-.975.065-1.755.065-2.275s0-1.43-.065-2.86c0-.326-.065-.91-.065-1.626v-.065c0-.13.065-.13.195-.13h5.98c.26 0 .39.065.39.26 0 .13.065.39.13.91s.065.845.065.91a.14.14 0 0 1-.13.13h-.13c-1.17-.13-2.275-.13-3.25-.13-.26 0-.39.065-.455.196 0 .065-.065.195-.065.52s.065.52.13.585c.065.065.195.13.455.13h.585c.585 0 1.17 0 1.69-.065.065 0 .195 0 .39-.065h.39c.13 0 .195.065.195.13 0-.065-.065.26-.13 1.04-.065.325-.065.715-.065 1.04 0 .065-.065.13-.195.13 0 0-.195 0-.585-.065-.26 0-.845-.065-1.755-.065h-.715c-.195 0-.26.065-.325.13v.39c0 .325 0 .585.065.65.065.195.39.26.845.325h.975c.26 0 .585 0 1.04-.065.455-.065.845-.065 1.04-.065.065.195.13.26.13.39z"/></g><g><path fill="#3b3a3a" d="M69.477 4.189c-.324 0-.454 0-1.17-.065-.714-.065-1.17-.065-1.56-.065-.455 0-.65 0-.78.065-.194.065-.26.26-.26.65s.13.65.326.715c.065 0 .26.065.39.065.325 0 .78 0 1.365-.065.65-.065 1.105-.065 1.365-.065.13 0 .195.39.195 1.17 0 .65 0 1.105-.065 1.17 0 .065-.065.13-.195.13.065 0-.065 0-.456-.065-.454-.065-1.234-.065-2.21-.065h-.52c-.26.065-.325.13-.325.26 0 .65 0 1.365.066 2.21.064.715.064 1.04.064.975 0 .13-.13.195-.455.195h-.585c-.845 0-1.365 0-1.625-.065-.13 0-.195-.13-.195-.195 0-.52 0-1.235.065-2.21.065-.975.065-1.755.065-2.21 0-.585 0-1.3-.065-2.21-.065-1.365-.13-2.08-.13-2.21v-.066c0-.13.065-.195.195-.195h2.99c.39 0 .91 0 1.626-.065.715-.065 1.235-.065 1.625-.065.195 0 .325.065.39.26v.846c0 .13.065.26.065.585-.024.238-.065.39-.065.52 0 0-.065.065-.13.065z"/></g><g><path fill="#3b3a3a" d="M46.791 7.959c.065.065 0 .195 0 .39-.39 1.43-1.3 2.47-2.665 3.12-1.43.65-2.795.715-4.16.13-1.3-.585-2.275-1.56-2.925-3.055-.65-1.43-.715-2.86-.325-4.225.455-1.43 1.3-2.47 2.73-3.12 1.495-.716 2.86-.78 4.095-.196.13.065.195.13.26.195s0 .52-.065 1.235c-.065.715-.13 1.105-.195 1.235 0 .065-.065.065-.13.13 0 0-.195 0-.455-.13a2.609 2.609 0 0 0-.975-.195c-.455 0-.845.065-1.235.26-.65.325-1.105.846-1.3 1.496-.13.65-.065 1.3.195 2.015.325.715.78 1.235 1.365 1.56.65.325 1.3.325 1.95.065.39-.195.715-.455 1.04-.78.195-.195.325-.52.52-.845l.195-.39h.195c.13.065.455.26.975.585.585.26.91.52.91.52z"/></g></g></g></svg>