<svg xmlns="http://www.w3.org/2000/svg" width="26" height="20" viewBox="0 0 26 20"><g><g><path fill="#ff5912" d="M20.994 4.438V0h-1.608v4.438h-4.824v1.48h4.824v4.438h1.608V5.917h4.824V4.438zM7.65 8.408c-1.735-.047-3.383-1.785-3.683-3.88C3.666 2.433 4.83.83 6.564.877c1.734.048 3.383 1.729 3.682 3.825.3 2.095-.864 3.754-2.597 3.707zm4.136 6.743c.054.207.083.42.083.639 0 1.808-1.266 3.22-4.899 3.22-2.583 0-4.45-1.505-4.45-3.313 0-1.771 2.315-3.246 4.899-3.22a6.07 6.07 0 0 1 1.675.247c1.402.897 2.409 1.405 2.692 2.427zM14.136 0H7.405C4.387 0 1.547 2.103 1.547 4.54c0 2.49 2.057 4.5 5.127 4.5.214 0 .42-.004.625-.018-.2.351-.342.747-.342 1.157 0 .693.405 1.253.916 1.712-.387 0-.76.01-1.167.01C2.968 11.9.09 14.09.09 16.362.09 18.6 3.245 20 6.983 20c4.262 0 6.615-2.225 6.615-4.462 0-1.794-.575-2.868-2.353-4.025-.609-.396-1.773-1.36-1.773-1.927 0-.664.206-.99 1.293-1.771 1.113-.8 1.901-1.926 1.901-3.235 0-1.558-.754-3.076-2.17-3.577h2.134z"/></g></g></svg>