<svg xmlns="http://www.w3.org/2000/svg" width="24" height="20" viewBox="0 0 24 20"><g><g><path fill="#ff5912" d="M20.611 4.375c0 .343-.32.625-.71.625h-1.418c-.39 0-.71-.282-.71-.625v-1.25c0-.343.32-.625.71-.625h1.419c.39 0 .71.282.71.625zm0 11.873c0 .688-.639 1.25-1.419 1.25H5.004c-.78 0-1.418-.562-1.418-1.25V8.75h2.219c-.103.402-.157.82-.157 1.25 0 3.132 2.893 5.682 6.45 5.682 3.558 0 6.451-2.55 6.451-5.682 0-.43-.055-.848-.157-1.25h2.22zM8.015 8.75h8.167c.154.391.24.812.24 1.25 0 2.1-1.94 3.807-4.324 3.807S7.775 12.099 7.775 10c0-.438.085-.859.24-1.25zM19.68 0H4.517C2.444.001.748 1.495.748 3.32v13.358c0 1.826 1.696 3.32 3.769 3.32H19.68c2.072 0 3.768-1.494 3.768-3.32V3.32c0-1.825-1.696-3.319-3.768-3.319z"/></g></g></svg>