<svg xmlns="http://www.w3.org/2000/svg" width="27" height="20" viewBox="0 0 27 20"><g><g><path fill="#ff5912" d="M27.19 2.367c-1.003.401-2.08.673-3.21.795 1.154-.625 2.04-1.614 2.457-2.793-1.08.578-2.275.999-3.548 1.224C21.869.613 20.417 0 18.809 0c-3.086 0-5.589 2.26-5.589 5.05 0 .395.05.78.145 1.15C8.72 5.988 4.602 3.979 1.846.923a4.663 4.663 0 0 0-.757 2.539c0 1.752.987 3.297 2.487 4.203a6.027 6.027 0 0 1-2.532-.632v.064c0 2.445 1.926 4.486 4.482 4.95a6.135 6.135 0 0 1-2.523.086c.711 2.006 2.775 3.465 5.22 3.506-1.912 1.355-4.322 2.162-6.94 2.162-.452 0-.896-.024-1.333-.071 2.472 1.433 5.41 2.269 8.566 2.269 10.28 0 15.901-7.694 15.901-14.365 0-.22-.005-.437-.016-.654 1.092-.71 2.04-1.6 2.789-2.613z"/></g></g></svg>